<svg width="32" height="32" viewBox="0 0 32 32" fill="none" xmlns="http://www.w3.org/2000/svg">
  <rect width="32" height="32" rx="8" fill="#1E293B" />
  <path d="M10 10V22H11.5V17.15H14.5C15.7333 17.15 16.65 16.8417 17.25 16.225C17.85 15.6083 18.15 14.8 18.15 13.8C18.15 12.8 17.85 12 17.25 11.4C16.65 10.8 15.7333 10.5 14.5 10.5H10V10ZM11.5 11.65H14.5C15.3 11.65 15.8833 11.8333 16.25 12.2C16.6167 12.5667 16.8 13.0833 16.8 13.75C16.8 14.4167 16.6167 14.9333 16.25 15.3C15.8833 15.6667 15.3 15.85 14.5 15.85H11.5V11.65Z" fill="#10B981" />
  <path d="M19.5 22L16.6 10H18.3L20.5 20.1L22.9 10H24.5L26.9 20.1L29.1 10H30.8L27.9 22H26.3L23.7 11.8L21.1 22H19.5Z" fill="#10B981" />
</svg> 